<?xml version="1.0" standalone="no"?>
<!DOCTYPE svg PUBLIC "-//W3C//DTD SVG 20010904//EN"
 "http://www.w3.org/TR/2001/REC-SVG-20010904/DTD/svg10.dtd">
<svg version="1.0" xmlns="http://www.w3.org/2000/svg"
 width="600.000000pt" height="404.000000pt" viewBox="0 0 600.000000 404.000000"
 preserveAspectRatio="xMidYMid meet">
<g transform="translate(0.000000,404.000000) scale(0.100000,-0.100000)"
fill="#000000" stroke="none">
<path d="M2560 4015 c-429 -49 -854 -172 -1202 -349 -634 -322 -1039 -807
-1123 -1341 -21 -131 -16 -357 9 -475 187 -861 1165 -1525 2411 -1635 896 -79
1784 147 2410 614 131 98 352 321 437 441 128 181 221 391 265 600 25 118 25
382 0 499 -43 202 -115 371 -232 546 -378 568 -1094 956 -2011 1091 -154 23
-789 28 -964 9z m703 -15 c15 -5 2 -7 -38 -4 -33 3 -125 5 -205 6 -82 1 -130
4 -110 8 47 9 325 1 353 -10z m-446 4 c-3 -3 -22 -8 -42 -10 -20 -2 -45 -6
-56 -9 -10 -4 -19 -4 -19 -1 0 8 60 24 94 25 16 1 27 -2 23 -5z m-144 -11 c-7
-2 -19 -2 -25 0 -7 3 -2 5 12 5 14 0 19 -2 13 -5z m-98 -21 c-3 -3 -11 0 -18
7 -9 10 -8 11 6 5 10 -3 15 -9 12 -12z m48 11 c-7 -2 -19 -2 -25 0 -7 3 -2 5
12 5 14 0 19 -2 13 -5z m857 -3 c16 -5 2 -6 -35 -3 -33 3 -62 7 -64 9 -8 7 74
2 99 -6z m-1005 -10 c-3 -5 -16 -10 -28 -9 -20 1 -20 2 3 9 14 4 26 8 28 9 2
1 0 -3 -3 -9z m58 3 c-7 -2 -21 -2 -30 0 -10 3 -4 5 12 5 17 0 24 -2 18 -5z
m887 -18 c276 -29 518 -81 765 -163 828 -274 1389 -802 1522 -1432 24 -117 24
-363 0 -479 -110 -517 -482 -949 -1077 -1250 -635 -322 -1420 -440 -2185 -330
-1047 151 -1870 705 -2100 1413 -51 160 -60 221 -59 421 1 167 3 188 32 297
70 269 208 502 427 724 465 470 1201 764 2050 818 114 7 490 -4 625 -19z m145
15 c-3 -5 -12 -10 -18 -10 -7 0 -6 4 3 10 19 12 23 12 15 0z m98 -14 c8 5 9 4
2 -3 -5 -6 -27 -8 -49 -5 -24 3 -34 7 -25 12 7 5 23 4 37 -1 13 -5 29 -6 35
-3z m-1318 -6 c-3 -5 -12 -10 -18 -10 -7 0 -6 4 3 10 19 12 23 12 15 0z m48 3
c-7 -2 -19 -2 -25 0 -7 3 -2 5 12 5 14 0 19 -2 13 -5z m1314 -9 c-3 -3 -12 -4
-19 -1 -8 3 -5 6 6 6 11 1 17 -2 13 -5z m-1418 -8 c-2 -2 -24 -6 -49 -9 -30
-4 -38 -3 -25 3 19 8 83 14 74 6z m1486 -6 c13 -6 15 -9 5 -9 -8 0 -22 4 -30
9 -18 12 -2 12 25 0z m-1585 -9 c0 -5 -7 -11 -14 -14 -10 -4 -13 -1 -9 9 6 15
23 19 23 5z m1676 -9 c-5 -8 -66 -4 -66 4 0 2 16 4 36 4 19 0 33 -4 30 -8z
m-1723 -9 c-7 -2 -19 -2 -25 0 -7 3 -2 5 12 5 14 0 19 -2 13 -5z m1781 -2 c4
-5 -3 -7 -14 -4 -23 6 -26 13 -6 13 8 0 17 -4 20 -9z m-1849 -11 c-3 -5 -11
-10 -16 -10 -6 0 -7 5 -4 10 3 6 11 10 16 10 6 0 7 -4 4 -10z m1910 -8 c-3 -3
-11 0 -18 7 -9 10 -8 11 6 5 10 -3 15 -9 12 -12z m65 -22 c8 -5 11 -10 5 -10
-5 0 -21 10 -35 21 -24 20 -5 13 30 -11z m-2067 4 c-35 -15 -101 -28 -91 -19
3 3 18 8 34 11 16 3 30 9 32 13 2 5 15 8 30 8 l27 0 -32 -13z m2185 -30 c12
-3 22 -10 22 -15 0 -7 -88 18 -100 28 -6 6 45 -3 78 -13z m-2308 2 c0 -3 -4
-8 -10 -11 -5 -3 -10 -1 -10 4 0 6 5 11 10 11 6 0 10 -2 10 -4z m-31 -10 c-2
-2 -15 -9 -29 -15 -24 -11 -24 -11 -6 3 16 13 49 24 35 12z m-66 -21 c-3 -9
-8 -14 -10 -11 -3 3 -2 9 2 15 9 16 15 13 8 -4z m2497 -5 c46 -25 34 -25 -21
0 -24 11 -37 19 -29 19 8 0 31 -8 50 -19z m-2525 -10 c3 -6 -1 -7 -9 -4 -18 7
-21 14 -7 14 6 0 13 -4 16 -10z m-51 -15 c-10 -8 -23 -15 -28 -15 -6 0 -1 7
10 15 10 8 23 15 28 15 6 0 1 -7 -10 -15z m2660 2 c16 -12 16 -13 -3 -13 -11
0 -18 3 -15 7 2 4 -4 10 -13 12 -14 4 -14 5 -2 6 8 0 23 -5 33 -12z m102 -55
c-5 -4 -66 26 -66 33 0 3 16 -3 35 -12 19 -9 33 -18 31 -21z m-2861 18 c-3 -5
-12 -10 -18 -10 -7 0 -6 4 3 10 19 12 23 12 15 0z m2927 -38 c7 -7 22 -12 34
-12 12 0 27 -7 34 -15 10 -12 9 -15 -4 -15 -10 0 -14 5 -11 11 4 6 1 9 -6 8
-20 -4 -59 11 -59 22 0 6 -4 8 -8 5 -4 -2 -14 0 -22 5 -11 7 -10 8 8 6 12 -2
28 -9 34 -15z m-2992 4 c0 -3 -4 -8 -10 -11 -5 -3 -10 -1 -10 4 0 6 5 11 10
11 6 0 10 -2 10 -4z m-62 -28 c-2 -6 -15 -13 -29 -15 -18 -2 -20 -1 -9 6 8 5
18 7 22 5 4 -3 8 0 8 5 0 6 3 11 6 11 3 0 4 -5 2 -12z m-63 -28 c3 -5 1 -10
-4 -10 -6 0 -11 5 -11 10 0 6 2 10 4 10 3 0 8 -4 11 -10z m3225 0 c0 -5 -5
-10 -11 -10 -5 0 -7 5 -4 10 3 6 8 10 11 10 2 0 4 -4 4 -10z m94 -51 c5 -5 -5
-3 -22 3 -18 7 -32 16 -32 20 0 4 -7 8 -15 8 -8 0 -15 5 -15 11 0 9 59 -20 84
-42z m-3375 18 c-19 -12 -47 -30 -64 -40 -30 -18 -30 -18 -8 1 12 11 19 23 15
26 -3 4 1 4 11 0 9 -3 17 -2 17 3 0 6 10 15 23 21 38 18 41 13 6 -11z m3443
-53 c21 -15 38 -29 38 -31 0 -5 -44 18 -50 27 -3 4 -14 12 -25 18 -11 6 -16
12 -11 12 6 0 27 -12 48 -26z m-3621 -47 c-10 -9 -11 -8 -5 6 3 10 9 15 12 12
3 -3 0 -11 -7 -18z m3718 -6 c23 -12 29 -20 19 -23 -7 -3 -26 5 -41 18 -33 28
-25 30 22 5z m-3742 -6 c0 -8 -4 -12 -9 -9 -5 3 -6 10 -3 15 9 13 12 11 12 -6z
m-38 -28 c-2 -2 -25 -17 -51 -34 -26 -17 -45 -32 -43 -35 2 -2 -10 -9 -27 -16
l-32 -12 35 30 c18 16 39 30 44 30 6 0 23 12 40 25 16 13 31 22 34 20 2 -3 2
-6 0 -8z m3844 -12 c8 -8 17 -11 21 -8 3 4 6 -2 6 -12 0 -17 -1 -17 -22 2 -13
11 -30 23 -38 26 -12 4 -12 6 2 6 9 1 23 -6 31 -14z m56 -40 c9 5 81 -61 74
-69 -3 -3 -16 8 -30 24 -13 16 -27 29 -31 29 -21 -3 -32 3 -31 19 0 10 3 12 6
4 2 -6 8 -10 12 -7z m-4081 -81 c-12 -12 -17 -13 -23 -3 -5 8 -4 10 4 5 6 -4
14 0 17 9 4 9 9 13 12 10 3 -3 -1 -13 -10 -21z m4273 -77 c3 -5 10 -8 15 -7 5
1 10 -4 12 -12 3 -11 2 -11 -6 0 -5 8 -13 14 -18 15 -9 2 -43 28 -76 60 -10 9
-23 17 -29 17 -5 0 -7 5 -4 10 6 9 86 -54 106 -83z m-4316 47 c-11 -8 -20 -19
-20 -24 0 -14 -13 -22 -19 -11 -6 9 39 51 53 51 3 0 -3 -7 -14 -16z m-50 -43
c3 -5 1 -12 -5 -16 -5 -3 -10 1 -10 9 0 18 6 21 15 7z m-25 -29 c0 -4 -15 -16
-32 -26 l-33 -18 30 26 c34 28 35 29 35 18z m4477 -50 c37 -37 23 -34 -22 5
-22 19 -31 31 -21 27 10 -4 29 -18 43 -32z m-4550 -17 c-9 -7 -14 -14 -11 -17
2 -3 -2 -8 -11 -12 -13 -4 -14 -2 -5 14 6 11 15 20 21 20 6 0 7 5 3 12 -5 7
-3 8 6 3 10 -6 10 -11 -3 -20z m4628 -64 l30 -35 -42 35 c-23 18 -39 37 -36
42 3 5 8 5 12 0 3 -4 20 -23 36 -42z m-4665 16 c0 -2 -9 -12 -20 -22 -24 -21
-27 -14 -4 9 15 15 24 20 24 13z m-67 -67 c-13 -10 -23 -23 -23 -28 0 -6 -15
-20 -32 -32 l-33 -22 28 24 c15 13 27 28 27 33 0 12 44 54 50 48 3 -3 -5 -13
-17 -23z m4777 0 c8 -5 11 -10 5 -11 -5 0 -1 -4 10 -9 15 -6 16 -9 4 -9 -9 -1
-24 8 -34 19 -19 21 -11 27 15 10z m64 -79 c-5 -6 -34 20 -34 30 0 5 8 1 18
-8 10 -10 17 -20 16 -22z m-4929 -44 c-18 -29 -47 -45 -38 -22 3 8 9 12 14 9
8 -5 13 10 10 29 -1 5 3 6 9 2 5 -3 10 -1 10 6 0 7 3 10 6 7 3 -4 -2 -18 -11
-31z m4944 20 c8 -10 7 -14 -4 -14 -8 0 -12 4 -9 8 2 4 -2 10 -8 12 -8 4 -9 6
-2 6 6 1 17 -5 23 -12z m56 -88 c-3 -4 2 -12 10 -19 8 -7 15 -18 15 -24 0 -6
-9 0 -19 14 -11 13 -17 28 -15 32 3 4 0 8 -5 8 -6 0 -11 7 -11 15 0 8 -4 15
-10 15 -5 0 -10 6 -10 13 1 6 12 -1 25 -17 13 -17 22 -33 20 -37z m-5069 -28
c-9 -10 -13 -21 -9 -24 3 -4 1 -7 -5 -7 -16 0 -15 16 3 33 8 8 11 18 7 22 -4
5 -1 5 6 1 11 -7 10 -11 -2 -25z m5111 -43 c-3 -8 -6 -5 -6 6 -1 11 2 17 5 13
3 -3 4 -12 1 -19z m33 -55 c24 -40 37 -88 22 -79 -5 3 -12 19 -15 35 -3 16
-12 35 -19 43 -13 13 -22 38 -14 38 2 0 14 -17 26 -37z m-5213 -25 c2 -17 0
-19 -7 -8 -5 8 -6 18 -4 22 8 12 10 10 11 -14z m-35 -91 c-7 -8 -9 -18 -5 -23
4 -5 1 -3 -7 4 -12 11 -13 14 -1 21 8 5 10 14 6 22 -6 11 -5 11 5 2 10 -9 10
-15 2 -26z m5300 -21 c-3 -5 -9 -1 -13 10 -12 31 -10 39 5 19 8 -11 12 -24 8
-29z m-5324 -51 c-3 -3 -9 2 -12 12 -6 14 -5 15 5 6 7 -7 10 -15 7 -18z m5352
11 c0 -3 -4 -8 -10 -11 -5 -3 -10 -1 -10 4 0 6 5 11 10 11 6 0 10 -2 10 -4z
m2 -38 c-7 -7 -12 -8 -12 -2 0 14 12 26 19 19 2 -3 -1 -11 -7 -17z m-5391 -65
c-12 -20 -14 -14 -5 12 4 9 9 14 11 11 3 -2 0 -13 -6 -23z m5415 -7 c0 -15 -5
-21 -10 -16 -5 5 -6 16 -3 24 9 23 15 19 13 -8z m-5423 -31 c-3 -9 -8 -14 -10
-11 -3 3 -2 9 2 15 9 16 15 13 8 -4z m-3 -34 c0 -6 -4 -13 -10 -16 -5 -3 -10
1 -10 9 0 9 5 16 10 16 6 0 10 -4 10 -9z m5437 -13 c-3 -8 -6 -5 -6 6 -1 11 2
17 5 13 3 -3 4 -12 1 -19z m-5467 -153 l-7 -70 -1 85 c-1 47 2 78 7 70 4 -8 4
-46 1 -85z m5487 23 c-3 -7 -5 -2 -5 12 0 14 2 19 5 13 2 -7 2 -19 0 -25z m10
-150 c-2 -13 -4 -5 -4 17 -1 22 1 32 4 23 2 -10 2 -28 0 -40z m-5494 -108 c2
-47 0 -76 -4 -65 -4 11 -8 54 -8 95 1 95 6 80 12 -30z m5494 -2 c-3 -7 -5 -2
-5 12 0 14 2 19 5 13 2 -7 2 -19 0 -25z m-10 -55 c-3 -10 -5 -4 -5 12 0 17 2
24 5 18 2 -7 2 -21 0 -30z m-5469 -78 c-3 -3 -9 2 -12 12 -6 14 -5 15 5 6 7
-7 10 -15 7 -18z m5459 -7 c-3 -8 -6 -5 -6 6 -1 11 2 17 5 13 3 -3 4 -12 1
-19z m-5427 -93 c0 -5 -5 -3 -10 5 -5 8 -10 20 -10 25 0 6 5 3 10 -5 5 -8 10
-19 10 -25z m5397 -24 c0 -11 -5 -18 -9 -15 -4 3 -5 11 -1 19 7 21 12 19 10
-4z m-5372 -66 c0 -13 -3 -21 -7 -19 -4 3 -8 14 -8 25 0 11 -5 30 -10 42 -10
20 -9 20 6 -1 10 -13 18 -34 19 -47z m5342 -12 c-3 -10 -5 -4 -5 12 0 17 2 24
5 18 2 -7 2 -21 0 -30z m-17 -61 c0 -4 -9 -13 -20 -20 -19 -12 -20 -11 -8 8
13 20 28 27 28 12z m-5282 -29 c-1 -5 4 -19 11 -33 l12 -25 -20 25 c-23 28
-26 40 -11 40 6 0 9 -3 8 -7z m5272 -6 c0 -2 -9 -12 -20 -22 -24 -21 -27 -14
-4 9 15 15 24 20 24 13z m-63 -102 c-7 -14 -16 -25 -20 -25 -4 0 -2 10 5 23 7
12 11 26 10 30 -1 5 2 6 7 3 5 -4 4 -16 -2 -31z m-5167 11 c-1 -5 4 -13 12
-18 11 -8 11 -9 0 -6 -8 2 -13 7 -12 12 1 5 -4 13 -12 18 -11 8 -11 9 0 6 8
-2 13 -7 12 -12z m78 -123 c21 -38 13 -37 -13 1 -14 20 -25 39 -25 42 0 9 26
-20 38 -43z m5033 30 c-5 -10 -9 -21 -10 -25 -1 -5 -4 -8 -8 -7 -10 1 -5 20 9
36 15 19 20 16 9 -4z m-41 -78 c-13 -14 -26 -23 -28 -20 -4 4 38 44 47 45 3 0
-6 -11 -19 -25z m-4898 -78 c18 -21 48 -54 66 -73 17 -19 32 -41 32 -50 0 -8
4 -13 9 -10 10 7 91 -71 91 -87 0 -5 -9 2 -21 17 -11 14 -25 24 -30 20 -5 -3
-13 4 -17 15 -4 11 -11 19 -17 19 -5 0 -16 11 -22 24 -7 14 -30 41 -50 60 -21
18 -40 38 -42 43 -2 6 -19 28 -37 51 -19 23 -34 45 -34 49 0 4 9 -3 20 -16 10
-13 34 -41 52 -62z m4802 -36 c3 -5 -1 -11 -9 -14 -9 -4 -12 -1 -8 9 6 16 10
17 17 5z m-40 -50 c-10 -10 -21 -16 -24 -14 -3 3 4 11 14 19 28 20 33 17 10
-5z m-41 -46 c-3 -9 -8 -14 -10 -11 -3 3 -2 9 2 15 9 16 15 13 8 -4z m-31 -28
c-7 -8 -10 -16 -7 -19 3 -2 -1 -5 -9 -5 -12 0 -12 4 1 24 9 13 18 21 21 19 3
-3 0 -12 -6 -19z m-36 -49 c4 -7 4 -10 0 -6 -5 4 -21 -7 -37 -23 -16 -16 -29
-25 -29 -19 0 9 47 60 56 60 1 0 6 -6 10 -12z m-4359 -86 c17 -16 35 -27 39
-23 4 3 4 0 0 -7 -5 -9 -3 -12 7 -10 9 2 15 0 14 -3 -1 -3 5 -14 13 -24 8 -10
-4 -5 -26 11 -23 16 -40 32 -38 35 2 4 -10 12 -26 19 -17 7 -29 15 -26 17 3 3
-7 16 -22 30 l-27 25 30 -20 c17 -11 44 -34 62 -50z m4283 28 c0 -5 -5 -10
-11 -10 -5 0 -7 5 -4 10 3 6 8 10 11 10 2 0 4 -4 4 -10z m-54 -45 c-8 -8 -18
-15 -22 -15 -3 0 -1 7 6 15 7 8 17 15 22 15 5 0 3 -7 -6 -15z m-26 -31 c0 -8
-19 -13 -24 -6 -3 5 1 9 9 9 8 0 15 -2 15 -3z m-30 -18 c0 -2 -6 -9 -13 -15
-10 -8 -14 -7 -14 4 0 8 6 15 14 15 7 0 13 -2 13 -4z m-4020 -59 c0 -5 5 -5
12 -1 7 5 8 3 3 -6 -6 -10 -4 -12 11 -6 14 5 16 4 7 -5 -9 -9 -21 -4 -52 22
-49 39 -52 44 -11 21 16 -9 30 -21 30 -25z m3930 -11 c0 -2 -7 -7 -16 -10 -8
-3 -12 -2 -9 4 6 10 25 14 25 6z m-61 -34 c-27 -19 -52 -25 -43 -11 3 5 9 7
13 4 5 -2 16 4 26 15 10 11 21 18 24 15 2 -3 -6 -13 -20 -23z m-3772 -12 c24
-14 43 -29 43 -33 0 -5 -13 1 -29 12 -16 12 -32 21 -36 21 -3 0 -14 7 -23 17
-20 19 -11 16 45 -17z m3718 -31 c-4 -5 -12 -9 -18 -8 -9 0 -8 2 1 6 6 2 9 10
6 15 -4 7 -2 8 5 4 6 -4 9 -12 6 -17z m-40 -18 c-3 -6 -11 -11 -17 -11 -6 0
-6 6 2 15 14 17 26 13 15 -4z m-3591 0 c11 -4 15 -10 10 -13 -5 -4 -18 0 -29
8 -20 15 -12 17 19 5z m3523 -36 c0 -8 -4 -15 -9 -15 -4 0 -8 7 -8 15 0 8 4
15 8 15 5 0 9 -7 9 -15z m-3457 -5 c8 -5 11 -10 5 -10 -5 0 -17 5 -25 10 -8 5
-10 10 -5 10 6 0 17 -5 25 -10z m3420 -4 c0 -2 -8 -10 -17 -17 -16 -13 -17
-12 -4 4 13 16 21 21 21 13z m-3366 -31 c3 -9 0 -12 -9 -9 -7 3 -16 12 -19 19
-3 9 0 12 9 9 7 -3 16 -12 19 -19z m3306 -9 c-14 -13 -36 -27 -50 -31 -24 -7
-24 -7 -5 8 11 8 23 13 26 11 4 -2 14 5 24 16 10 11 21 20 24 20 3 0 -6 -11
-19 -24z m-3220 -36 c0 -6 -9 -2 -20 7 -11 10 -20 19 -20 21 0 1 9 -2 20 -8
11 -6 20 -15 20 -20z m3122 -12 c-18 -18 -24 -20 -34 -10 -11 11 -10 12 3 7 9
-3 22 1 29 10 7 8 15 15 18 15 4 0 -4 -10 -16 -22z m-3057 -12 c7 3 16 0 20
-5 3 -6 11 -8 17 -5 7 4 8 2 4 -5 -4 -6 -13 -8 -19 -4 -7 4 -16 8 -22 9 -5 0
-16 2 -23 2 -8 1 -10 7 -6 14 6 9 9 9 11 1 3 -7 10 -10 18 -7z m85 -36 c8 -5
11 -10 5 -10 -5 0 -17 5 -25 10 -8 5 -10 10 -5 10 6 0 17 -5 25 -10z m2860 0
c-8 -5 -19 -10 -25 -10 -5 0 -3 5 5 10 8 5 20 10 25 10 6 0 3 -5 -5 -10z
m-2815 -28 c-3 -3 -11 0 -18 7 -9 10 -8 11 6 5 10 -3 15 -9 12 -12z m2781 6
c4 -6 3 -8 -4 -4 -5 3 -13 0 -15 -6 -3 -8 -6 -6 -6 5 -1 19 14 23 25 5z
m-2751 -9 c-4 -6 0 -9 10 -7 10 2 20 -4 22 -12 3 -9 1 -11 -4 -5 -4 6 -14 10
-22 10 -8 0 -16 6 -18 13 -3 6 0 12 7 12 6 0 8 -5 5 -11z m2700 -7 c-14 -12
-65 -32 -65 -26 0 3 15 11 33 19 37 17 45 18 32 7z m-2615 -22 c8 -5 12 -11
10 -14 -3 -2 -14 2 -24 10 -22 15 -10 19 14 4z m2522 -16 c-12 -8 -27 -12 -34
-8 -8 5 -6 10 8 15 35 14 50 10 26 -7z m-2462 -14 c0 -5 -2 -10 -4 -10 -3 0
-8 5 -11 10 -3 6 -1 10 4 10 6 0 11 -4 11 -10z m2390 -3 c-24 -22 -69 -37 -75
-27 -4 6 0 10 8 10 8 0 28 7 43 15 36 18 43 19 24 2z m-2320 -13 l25 -15 -25
6 c-14 4 -30 7 -37 7 -7 1 -10 5 -7 10 7 11 15 10 44 -8z m55 -13 c3 -5 2 -12
-3 -15 -5 -3 -9 1 -9 9 0 17 3 19 12 6z m75 -27 c0 -2 -7 -4 -15 -4 -8 0 -15
4 -15 10 0 5 7 7 15 4 8 -4 15 -8 15 -10z m2050 6 c0 -5 -10 -10 -22 -9 -22 0
-22 1 -3 9 11 5 21 9 23 9 1 1 2 -3 2 -9z m-2005 -20 c3 -6 -1 -7 -9 -4 -18 7
-21 14 -7 14 6 0 13 -4 16 -10z m56 -18 c-7 -2 -18 1 -23 6 -8 8 -4 9 13 5 13
-4 18 -8 10 -11z m1859 14 c0 -2 -9 -6 -20 -9 -11 -3 -18 -1 -14 4 5 9 34 13
34 5z m-53 -12 c-3 -3 -12 -4 -19 -1 -8 3 -5 6 6 6 11 1 17 -2 13 -5z m-1720
-10 c-3 -3 -12 -4 -19 -1 -8 3 -5 6 6 6 11 1 17 -2 13 -5z m1678 -4 c-3 -5
-14 -8 -25 -7 -24 2 -18 12 9 14 12 1 19 -2 16 -7z m-1638 -6 c-3 -3 -12 -4
-19 -1 -8 3 -5 6 6 6 11 1 17 -2 13 -5z m1579 -3 c-9 -14 -67 -22 -84 -10 -14
8 -13 9 8 6 21 -4 37 -1 78 12 2 1 1 -3 -2 -8z m-1468 -25 c4 -4 -9 -5 -28 -1
-19 3 -45 7 -57 8 -12 0 -20 4 -18 8 5 8 93 -5 103 -15z m1352 6 c0 -4 -17 -8
-37 -9 -37 -1 -37 -1 -8 7 42 11 45 11 45 2z m-95 -22 c-11 -5 -27 -9 -35 -9
-9 0 -8 4 5 9 11 5 27 9 35 9 9 0 8 -4 -5 -9z m-1036 -16 c10 -9 -55 -3 -69 6
-10 6 -2 7 25 3 22 -3 42 -7 44 -9z m964 9 c-7 -2 -19 -2 -25 0 -7 3 -2 5 12
5 14 0 19 -2 13 -5z m-844 -19 c9 -8 -55 -2 -74 6 -13 6 -5 7 25 3 25 -3 47
-7 49 -9z m739 8 c7 -5 -22 -9 -65 -9 -75 0 -76 0 -23 7 30 4 60 7 65 8 6 1
16 -2 23 -6z m-668 -12 c0 -12 -17 -12 -45 0 -17 7 -15 9 13 9 17 1 32 -3 32
-9z m465 0 c4 -6 -14 -9 -47 -8 l-53 1 45 7 c25 4 46 8 47 8 1 1 5 -2 8 -8z
m50 0 c-3 -5 -12 -10 -18 -10 -7 0 -6 4 3 10 19 12 23 12 15 0z m-417 -7 c-10
-2 -26 -2 -35 0 -10 3 -2 5 17 5 19 0 27 -2 18 -5z m105 0 c-7 -2 -21 -2 -30
0 -10 3 -4 5 12 5 17 0 24 -2 18 -5z m120 0 c-7 -2 -19 -2 -25 0 -7 3 -2 5 12
5 14 0 19 -2 13 -5z"/>
<path d="M2627 3724 c-691 -72 -1286 -319 -1675 -698 -205 -200 -329 -401
-393 -643 -30 -110 -37 -336 -15 -454 63 -336 262 -628 600 -882 314 -237 767
-420 1239 -502 383 -66 880 -64 1268 5 810 145 1453 549 1709 1074 33 68 71
165 86 221 24 89 27 119 28 265 1 126 -3 182 -17 238 -61 251 -175 449 -377
653 -347 350 -855 589 -1480 694 -261 44 -701 58 -973 29z m693 -19 c47 -4
101 -8 120 -10 19 -2 56 -8 82 -14 26 -6 55 -8 64 -4 10 4 15 2 11 -3 -3 -6
14 -11 41 -11 64 -2 215 -37 205 -47 -4 -5 6 -6 22 -2 23 5 27 4 15 -4 -11 -9
-5 -10 25 -5 22 3 47 0 55 -6 12 -8 10 -9 -10 -4 -21 5 -22 4 -7 -5 9 -6 26
-9 36 -5 11 3 23 0 27 -6 5 -8 3 -10 -7 -4 -8 5 -11 4 -7 0 11 -11 60 -16 53
-5 -3 5 20 -2 50 -16 31 -13 61 -21 67 -18 7 4 8 2 4 -4 -5 -8 0 -12 13 -12
11 0 26 -6 33 -12 13 -13 21 -15 56 -21 29 -4 135 -50 185 -79 27 -16 52 -26
56 -24 4 3 18 -4 30 -15 12 -11 37 -27 56 -35 20 -8 65 -35 101 -59 36 -25 69
-45 74 -45 5 0 19 -10 31 -22 12 -13 19 -17 15 -11 -5 9 -2 11 9 7 11 -5 13
-10 5 -19 -9 -11 -6 -12 12 -8 13 3 20 2 16 -2 -5 -5 2 -13 15 -19 12 -7 22
-18 22 -26 1 -8 7 -14 14 -12 18 4 62 -38 54 -51 -3 -6 -2 -8 3 -4 5 3 18 -1
28 -9 15 -10 16 -16 7 -28 -9 -11 -8 -15 3 -19 8 -3 13 0 12 8 0 8 2 14 7 14
4 1 6 -1 5 -4 -2 -2 7 -12 19 -20 22 -15 25 -37 10 -62 -4 -6 -2 -15 4 -19 7
-4 9 -3 5 4 -3 6 -2 13 4 17 6 4 8 11 5 16 -3 5 1 6 9 3 9 -3 16 -12 16 -19 0
-8 9 -16 20 -20 11 -3 19 -9 17 -13 -1 -4 7 -17 18 -28 50 -53 75 -83 75 -89
0 -3 12 -21 26 -40 14 -18 26 -42 27 -53 0 -12 5 -18 9 -16 4 3 8 -2 8 -10 0
-9 5 -16 11 -16 6 0 8 -7 5 -16 -3 -8 -2 -12 4 -9 5 3 14 -5 21 -17 11 -20 11
-22 -3 -10 -13 10 -18 10 -24 1 -4 -7 -3 -9 4 -5 14 8 54 -44 47 -61 -3 -9 0
-11 7 -7 8 5 9 -2 4 -22 -5 -20 -4 -25 3 -14 9 13 10 13 14 0 3 -8 10 -33 17
-55 6 -22 14 -46 17 -54 3 -8 1 -11 -6 -7 -7 5 -9 1 -5 -8 3 -9 9 -14 13 -12
4 3 7 -3 7 -12 0 -9 4 -37 8 -62 23 -132 5 -412 -27 -432 -9 -6 -9 -8 0 -8 9
0 7 -12 -6 -42 -10 -24 -16 -50 -14 -58 3 -9 -2 -8 -12 5 -16 19 -16 19 -9 -8
5 -20 0 -43 -16 -78 -20 -41 -26 -47 -39 -36 -8 6 -12 7 -9 2 9 -16 -7 -80
-19 -78 -6 1 -10 -5 -8 -15 1 -9 -11 -33 -26 -53 -16 -20 -29 -39 -29 -43 0
-18 -66 -96 -78 -91 -7 3 -10 0 -7 -6 4 -6 -1 -16 -11 -24 -11 -7 -19 -19 -19
-27 0 -7 -10 -12 -22 -12 -19 1 -21 -1 -12 -19 8 -14 8 -18 0 -13 -6 4 -11 2
-11 -4 0 -6 -4 -8 -10 -5 -5 3 -10 -1 -10 -9 0 -9 -2 -16 -4 -16 -2 0 -11 -3
-20 -6 -9 -3 -16 -1 -16 6 0 6 5 8 12 4 7 -5 8 -3 3 6 -6 10 -10 10 -20 -3 -9
-13 -15 -14 -25 -4 -12 10 -12 9 -1 -5 7 -10 17 -15 22 -12 5 3 9 3 9 -1 0
-10 -56 -61 -74 -68 -10 -4 -14 -12 -10 -18 4 -7 3 -9 -3 -6 -5 3 -27 -11 -48
-33 -33 -34 -41 -38 -59 -28 -17 8 -19 8 -9 -2 10 -10 5 -17 -20 -32 -18 -10
-44 -23 -59 -29 -16 -6 -26 -14 -23 -19 4 -6 -38 -32 -56 -34 -3 -1 -13 -9
-23 -19 -10 -9 -24 -17 -32 -17 -8 0 -14 -5 -14 -11 0 -5 -4 -8 -9 -5 -5 3
-19 -2 -32 -12 -26 -20 -60 -36 -71 -34 -5 1 -8 -2 -8 -8 0 -5 -7 -10 -16 -10
-9 0 -13 5 -9 13 4 6 -2 2 -12 -9 -10 -12 -34 -30 -53 -39 -34 -18 -35 -18
-20 1 12 14 9 14 -14 -4 -16 -12 -37 -22 -48 -22 -11 0 -16 -4 -13 -10 3 -5 0
-7 -8 -4 -8 3 -18 0 -22 -5 -3 -6 -11 -9 -16 -6 -5 4 -9 1 -9 -5 0 -7 -7 -10
-15 -6 -8 3 -15 1 -15 -4 0 -4 -15 -12 -32 -15 -18 -4 -37 -10 -43 -14 -5 -4
-29 -13 -52 -21 -38 -12 -59 -15 -106 -19 -10 0 -16 -5 -13 -10 3 -5 -9 -11
-27 -14 -17 -2 -33 -1 -35 4 -2 5 -13 9 -25 8 -21 0 -21 -1 -2 -8 14 -6 -6
-14 -73 -30 -51 -12 -96 -20 -101 -17 -5 4 -11 2 -13 -3 -1 -6 -37 -13 -78
-16 -41 -3 -88 -10 -105 -15 -49 -14 -310 -30 -496 -30 -301 0 -618 41 -899
115 -52 14 -106 27 -120 29 -14 3 -46 13 -73 25 -26 11 -55 17 -64 14 -10 -4
-14 -2 -10 4 4 6 -7 13 -26 17 -26 5 -29 9 -17 17 12 8 10 9 -7 4 -20 -5 -120
28 -133 45 -3 4 -13 9 -23 13 -11 4 -15 12 -11 19 6 10 4 11 -7 1 -16 -16 -33
-17 -23 -1 4 6 3 8 -4 4 -6 -3 -26 2 -45 13 -19 11 -38 17 -41 14 -3 -4 -6 1
-6 11 0 9 -4 15 -9 11 -5 -3 -25 5 -44 18 -19 13 -49 29 -66 37 -17 7 -28 17
-24 23 4 6 0 8 -8 5 -17 -7 -43 18 -29 27 6 3 16 3 23 -1 9 -5 9 -4 0 6 -10
11 -15 11 -28 0 -12 -10 -21 -8 -49 14 -19 14 -40 26 -46 26 -6 0 -8 5 -5 10
3 6 -1 10 -11 10 -18 0 -100 64 -151 118 -18 19 -33 32 -33 28 0 -3 -11 4 -25
16 -14 12 -23 28 -20 36 2 7 1 11 -4 8 -4 -3 -17 2 -27 10 -10 9 -14 13 -9 10
6 -2 17 5 25 17 12 19 11 20 -2 10 -22 -18 -69 5 -66 32 2 14 -2 19 -15 17
-10 -2 -17 3 -17 14 0 10 -3 14 -7 11 -7 -8 -53 51 -53 69 0 7 -3 14 -7 16
-14 6 -52 66 -59 92 -3 14 -10 23 -15 20 -5 -3 -6 3 -2 12 5 13 3 15 -7 9 -8
-5 -11 -3 -8 5 2 8 -4 22 -14 32 -10 10 -21 32 -25 48 -3 16 -9 27 -14 24 -5
-3 -6 1 -3 9 3 8 1 18 -5 22 -6 3 -11 16 -11 29 0 12 -4 26 -10 32 -5 5 -10
24 -12 42 -1 17 -5 32 -8 32 -4 0 -7 6 -8 13 0 6 -6 52 -12 101 -7 49 -10 99
-7 112 2 13 1 24 -2 24 -11 0 19 223 32 239 9 12 9 13 0 8 -8 -5 -7 8 5 40 9
26 20 49 24 51 4 2 4 10 1 18 -3 7 11 45 30 83 20 38 33 72 30 75 -4 3 -2 6 4
6 10 0 27 36 24 53 -1 5 3 6 9 2 5 -3 10 -2 10 4 0 5 12 28 27 50 22 34 29 39
42 28 14 -10 14 -10 3 5 -12 15 -9 22 19 57 17 22 36 38 41 35 5 -3 7 0 6 8
-2 7 2 12 8 11 7 -1 11 5 10 15 0 10 5 16 14 14 8 -2 12 0 8 4 -11 10 12 35
26 27 6 -3 8 -3 4 2 -10 11 11 37 23 29 5 -3 9 -2 8 3 -4 26 1 35 15 24 11 -9
14 -8 12 6 0 10 11 23 26 30 15 8 30 21 33 31 8 25 103 95 116 86 7 -4 9 -3 6
3 -4 6 0 17 9 24 8 7 14 8 12 3 -2 -5 2 -10 7 -11 6 -1 9 4 8 10 -3 14 61 60
82 60 8 0 12 4 9 8 -6 11 28 28 44 22 8 -3 10 1 5 13 -4 11 -3 15 4 11 6 -4
18 0 27 9 9 8 20 13 25 9 5 -3 13 0 17 6 4 8 3 9 -4 5 -23 -14 -12 2 12 17 23
15 24 15 18 -6 -4 -20 -3 -19 17 6 23 28 86 62 109 58 6 -1 12 3 12 10 0 7 9
9 23 6 12 -4 29 -2 37 4 11 8 9 9 -10 4 -24 -7 -24 -7 -5 8 11 8 24 13 29 10
4 -3 11 -2 15 3 11 16 81 44 109 44 22 0 24 2 12 11 -12 8 -9 9 13 5 15 -4 27
-2 27 3 0 9 31 24 55 27 6 0 23 6 40 13 16 7 37 10 47 8 10 -3 16 -1 12 4 -5
9 15 14 49 11 12 -1 16 2 11 10 -5 8 -2 9 9 5 10 -3 17 -3 17 2 0 4 11 6 25 3
15 -2 25 0 25 8 0 7 8 9 19 5 11 -3 22 -1 26 5 3 5 17 10 30 10 13 0 26 4 29
8 2 4 24 9 47 11 23 1 46 4 51 7 4 3 22 7 40 10 92 16 101 16 94 6 -4 -6 10
-4 31 4 20 9 64 18 98 20 33 3 101 8 150 12 107 8 465 6 585 -3z"/>
<path d="M3500 3656 c0 -2 7 -7 16 -10 8 -3 12 -2 9 4 -6 10 -25 14 -25 6z"/>
<path d="M3900 3586 c0 -2 7 -7 16 -10 8 -3 12 -2 9 4 -6 10 -25 14 -25 6z"/>
<path d="M1482 3351 c-11 -7 -11 -9 0 -14 9 -3 15 1 15 9 0 8 -1 14 -1 14 -1
0 -7 -4 -14 -9z"/>
<path d="M4647 3279 c7 -7 15 -10 18 -7 3 3 -2 9 -12 12 -14 6 -15 5 -6 -5z"/>
<path d="M4966 3028 c3 -5 10 -6 15 -3 13 9 11 12 -6 12 -8 0 -12 -4 -9 -9z"/>
<path d="M943 2935 c0 -8 4 -12 9 -9 5 3 6 10 3 15 -9 13 -12 11 -12 -6z"/>
<path d="M3180 2915 c-30 -8 -56 -14 -58 -15 -2 0 0 5 4 11 3 6 -5 3 -19 -6
-15 -9 -31 -14 -37 -10 -5 3 -10 1 -10 -5 0 -7 -7 -9 -15 -6 -46 19 -50 19
-30 3 19 -15 18 -16 -16 -13 -26 1 -36 -1 -32 -10 3 -8 -9 -15 -32 -20 -20 -3
-34 -9 -31 -12 3 -3 -2 -11 -12 -18 -13 -9 -20 -10 -31 -1 -12 10 -13 9 -6 -2
6 -11 2 -13 -21 -7 -27 6 -28 5 -10 -9 15 -11 16 -15 5 -15 -8 0 -21 -8 -28
-19 -9 -12 -24 -17 -42 -16 -16 1 -26 -1 -23 -6 3 -5 10 -7 15 -4 21 14 6 -10
-30 -46 -27 -27 -45 -37 -60 -34 -12 2 -19 0 -16 -6 4 -5 11 -7 16 -4 18 12 8
-11 -20 -45 -31 -39 -81 -128 -81 -147 0 -6 -4 -15 -10 -18 -5 -3 -7 0 -4 8 3
8 1 40 -5 71 -11 59 -6 90 12 79 6 -3 7 -1 3 6 -4 6 -12 8 -18 5 -14 -9 -29
17 -22 39 4 11 0 17 -11 17 -9 0 -13 5 -10 10 3 6 -1 13 -10 16 -9 4 -14 13
-11 20 3 8 2 13 -2 12 -11 -3 -80 70 -73 77 3 4 1 5 -6 3 -6 -2 -11 2 -11 7 0
6 3 9 7 8 4 -1 8 5 8 13 0 12 -3 12 -17 -1 -20 -18 -34 -20 -24 -3 4 6 3 8 -3
5 -6 -4 -36 5 -67 19 -31 14 -61 22 -67 18 -8 -5 -9 -3 -4 6 6 10 1 12 -23 7
-18 -4 -32 -3 -32 2 0 5 -9 7 -19 4 -10 -3 -28 0 -40 6 -16 9 -21 9 -21 0 0
-8 -25 -9 -92 -3 -124 10 -568 11 -568 1 0 -5 -5 -5 -10 -2 -12 7 -42 -20 -33
-29 4 -3 1 -6 -5 -6 -7 0 -12 -13 -12 -28 0 -15 -7 -52 -15 -82 -14 -51 -25
-111 -28 -167 -1 -13 -5 -23 -9 -23 -7 0 -8 -10 -9 -62 -1 -16 -4 -26 -8 -24
-3 2 -7 -11 -8 -29 -1 -18 -8 -61 -17 -96 -8 -35 -18 -83 -21 -107 -4 -23 -10
-40 -13 -38 -4 2 -8 -8 -8 -22 -1 -15 -3 -47 -4 -71 -2 -27 -5 -38 -11 -30 -5
8 -7 1 -7 -21 1 -19 -4 -60 -11 -90 -16 -66 -28 -129 -37 -190 -4 -25 -10 -47
-15 -50 -4 -3 -10 -27 -13 -55 -3 -27 -8 -74 -12 -102 -5 -38 -3 -53 5 -53 7
0 9 -6 5 -12 -5 -9 -4 -10 4 -3 12 11 395 9 388 -3 -2 -4 8 -8 22 -8 15 -1 21
1 15 3 -7 3 -13 9 -13 14 0 4 7 6 15 3 8 -4 15 -1 15 6 0 6 6 8 13 4 6 -4 9
-4 6 0 -4 4 0 33 8 64 8 31 17 66 19 77 2 11 7 35 10 52 3 18 10 30 15 27 5
-3 9 2 9 11 0 9 -4 14 -9 11 -5 -3 -4 13 2 37 5 23 11 53 13 67 1 14 3 28 3
31 1 3 27 4 59 1 31 -2 103 0 159 5 69 6 104 5 106 -2 3 -6 9 -6 18 1 8 7 54
15 103 19 60 5 84 11 75 17 -10 7 -5 8 14 3 19 -4 26 -2 22 5 -3 5 3 10 14 10
11 0 22 4 25 9 3 5 22 12 41 15 19 4 35 12 35 18 0 5 7 8 14 5 11 -4 13 -1 9
10 -4 11 -2 14 5 9 7 -4 12 -1 12 9 0 9 5 13 10 10 6 -3 14 3 18 15 4 12 12
22 17 23 6 1 9 6 7 10 -1 5 2 6 8 2 5 -3 10 1 10 9 0 9 5 16 11 16 5 0 8 4 4
9 -3 5 2 16 10 25 9 8 15 18 15 21 -1 3 1 11 3 18 3 6 6 2 6 -11 1 -13 -4 -33
-10 -44 -7 -13 -7 -18 0 -14 7 4 10 -22 10 -78 0 -47 5 -94 10 -105 6 -10 11
-34 12 -52 2 -32 32 -97 51 -110 5 -3 10 -15 11 -27 0 -11 4 -19 8 -16 4 2 9
-6 12 -17 3 -12 10 -18 17 -14 7 4 10 0 8 -11 -2 -12 2 -18 10 -16 8 1 11 -2
7 -8 -3 -5 -1 -10 5 -10 7 0 9 -7 6 -16 -5 -14 -4 -15 9 -4 13 11 14 10 8 -6
-6 -16 -4 -17 9 -6 13 10 17 10 21 -2 3 -8 3 -17 -1 -20 -13 -14 -9 -32 8 -32
9 0 17 6 17 12 0 7 -7 10 -16 7 -14 -4 -14 -3 -1 6 10 7 19 6 30 -4 9 -8 33
-22 55 -30 29 -13 35 -19 24 -26 -9 -6 -2 -7 21 -3 35 5 35 5 10 -10 -24 -14
-23 -14 23 -10 27 3 46 1 44 -3 -3 -5 7 -8 21 -9 15 -1 50 -5 77 -9 98 -17
311 -7 325 14 3 5 23 13 45 17 39 7 125 41 135 53 3 3 22 15 43 26 21 11 53
34 72 52 18 17 36 28 40 25 4 -4 5 -2 4 3 -2 6 18 32 44 59 26 27 47 53 47 58
0 5 4 6 10 3 6 -3 7 1 4 9 -3 9 -1 16 5 16 6 0 11 7 11 16 0 9 9 27 20 41 11
14 20 21 20 15 0 -6 -4 -14 -10 -17 -5 -3 -10 -19 -10 -36 0 -16 -4 -29 -10
-29 -5 0 -10 -5 -10 -11 0 -5 3 -8 8 -5 4 2 6 -14 4 -36 -3 -28 -7 -36 -13
-27 -7 11 -9 9 -7 -6 3 -43 -3 -90 -10 -73 -4 9 -8 -17 -9 -59 0 -41 3 -71 7
-67 5 5 47 207 95 449 47 242 106 540 131 662 24 122 44 223 44 225 0 2 87 2
192 0 169 -2 236 5 218 21 -7 7 -372 13 -390 7 -31 -11 -52 -40 -55 -77 -3
-37 -24 -149 -45 -243 -6 -25 -13 -64 -17 -87 -3 -24 -9 -40 -14 -37 -5 3 -6
-2 -3 -11 4 -9 -1 -51 -10 -93 -9 -42 -24 -111 -33 -152 -8 -41 -20 -86 -24
-100 l-9 -25 -170 5 c-109 3 -171 1 -174 -5 -2 -6 -8 -6 -16 1 -9 9 -19 8 -41
-3 -16 -8 -31 -18 -34 -23 -3 -5 -14 -7 -25 -5 -12 2 -18 0 -15 -5 3 -5 14 -7
25 -5 19 4 19 2 4 -21 -9 -13 -21 -21 -28 -17 -6 3 -8 3 -4 -1 8 -9 0 -19 -55
-77 -21 -21 -44 -36 -49 -33 -6 4 -8 2 -5 -3 9 -14 -18 -24 -40 -16 -9 4 -14
2 -10 -3 7 -12 -82 -17 -136 -8 -20 3 -35 9 -32 14 3 4 -2 11 -11 14 -10 4
-13 2 -8 -6 4 -7 3 -8 -4 -4 -7 4 -12 13 -12 21 0 7 -7 16 -16 19 -9 3 -14 12
-11 19 2 6 -3 17 -11 23 -27 19 -25 151 3 284 3 14 7 34 9 44 1 11 8 22 14 24
6 2 8 10 5 19 -4 10 3 23 18 35 13 11 17 16 9 12 -13 -7 1 15 62 95 10 13 18
21 18 17 0 -3 12 4 26 17 35 30 135 66 160 56 10 -4 29 -5 40 -2 12 2 25 0 29
-7 4 -6 16 -8 27 -4 11 3 19 2 16 -2 -6 -12 39 -54 48 -45 4 3 4 0 -1 -8 -4
-8 -2 -17 6 -22 7 -4 14 -20 15 -36 2 -41 3 -43 15 -43 8 0 10 14 6 40 -13 95
-90 154 -202 153 -78 -1 -139 -27 -205 -89 -104 -97 -154 -232 -155 -414 0
-105 2 -119 25 -160 36 -65 92 -93 184 -94 55 0 81 5 115 23 60 31 133 102
162 156 l24 45 202 0 202 0 -25 -66 c-34 -92 -55 -130 -110 -203 -82 -109
-187 -182 -336 -233 -88 -30 -101 -32 -243 -33 -158 0 -237 15 -340 67 -116
58 -214 172 -256 298 -47 140 -35 373 28 542 110 295 408 489 753 489 161 0
269 -31 365 -106 112 -87 174 -201 183 -337 5 -83 21 -106 24 -35 3 67 -1 110
-12 121 -5 5 -10 19 -10 31 0 11 -14 44 -30 74 -27 49 -28 55 -15 74 8 12 15
26 15 32 -1 5 -8 -2 -16 -17 -18 -35 -32 -35 -44 -3 -5 13 -18 30 -30 37 -11
7 -20 16 -20 21 0 4 5 5 12 1 7 -4 8 -3 4 5 -4 7 -13 10 -19 8 -7 -2 -19 2
-28 9 -35 31 -168 89 -229 100 -86 16 -222 16 -290 -1z m-945 -74 c122 -39
207 -109 254 -210 23 -50 26 -68 26 -166 0 -230 -83 -393 -238 -470 -109 -53
-183 -66 -424 -72 l-211 -5 -38 -199 -38 -199 -223 0 c-124 0 -222 3 -220 8 3
4 64 302 136 662 73 360 133 660 135 665 5 15 790 2 841 -14z"/>
<path d="M1431 2744 c0 -11 3 -14 6 -6 3 7 2 16 -1 19 -3 4 -6 -2 -5 -13z"/>
<path d="M2400 2696 c0 -2 8 -10 18 -17 15 -13 16 -12 3 4 -13 16 -21 21 -21
13z"/>
<path d="M1760 2576 c0 -2 7 -7 16 -10 8 -3 12 -2 9 4 -6 10 -25 14 -25 6z"/>
<path d="M1770 2538 c0 -3 -13 -69 -30 -146 -16 -78 -30 -144 -30 -147 0 -10
228 -5 261 7 54 18 90 48 110 92 37 81 19 144 -50 173 -33 15 -261 32 -261 21z
m39 -38 c1 12 16 15 84 12 45 -1 93 -6 107 -9 14 -3 32 -5 40 -4 11 1 9 -3 -5
-15 -12 -10 -14 -14 -5 -11 33 10 48 -10 42 -60 -6 -62 -20 -91 -34 -72 -7 10
-8 8 -3 -7 4 -15 0 -24 -10 -28 -11 -4 -14 -2 -9 7 4 6 -5 -1 -20 -17 -18 -18
-34 -26 -46 -23 -11 3 -20 2 -20 -1 0 -4 -40 -8 -89 -10 -88 -2 -116 7 -93 30
6 6 8 17 5 24 -6 16 16 114 29 131 5 7 7 17 3 23 -3 5 -3 20 1 33 7 21 7 21
15 2 5 -13 8 -15 8 -5z"/>
<path d="M1686 2442 c-3 -5 1 -9 9 -9 8 0 12 4 9 9 -3 4 -7 8 -9 8 -2 0 -6 -4
-9 -8z"/>
<path d="M2432 2230 c0 -14 2 -19 5 -12 2 6 2 18 0 25 -3 6 -5 1 -5 -13z"/>
<path d="M4410 2653 c-23 -120 -66 -342 -96 -493 -30 -151 -54 -276 -54 -277
0 -2 132 -3 293 -3 l293 0 -22 -102 c-12 -57 -30 -138 -39 -180 l-16 -78 -495
0 c-323 0 -494 -3 -494 -10 0 -5 7 -10 15 -10 219 -3 956 2 972 6 21 6 36 31
32 50 -2 9 2 23 22 71 4 13 6 29 3 37 -3 8 4 35 15 60 11 25 16 46 12 46 -5 0
-2 23 6 52 14 48 14 52 -2 64 -29 22 -89 26 -331 22 l-231 -3 2 25 c1 14 4 32
8 40 3 8 8 33 10 55 8 75 29 165 38 165 5 0 9 26 9 58 1 55 1 56 16 32 10 -16
13 -18 8 -5 -11 31 -13 94 -3 100 4 3 5 13 2 22 -4 11 -3 14 5 9 7 -4 10 -2 6
7 -3 8 5 56 16 108 12 52 22 106 21 121 0 15 4 30 9 33 6 4 10 21 10 39 0 18
3 36 6 39 4 4 8 21 10 39 2 18 6 43 8 56 3 14 0 22 -8 22 -10 0 -26 -64 -56
-217z"/>
<path d="M3615 2790 c10 -11 20 -20 23 -20 3 0 -3 9 -13 20 -10 11 -20 20 -23
20 -3 0 3 -9 13 -20z"/>
<path d="M2988 2773 c7 -3 16 -2 19 1 4 3 -2 6 -13 5 -11 0 -14 -3 -6 -6z"/>
<path d="M3793 2739 c-2 -23 3 -25 10 -4 4 8 3 16 -1 19 -4 3 -9 -4 -9 -15z"/>
<path d="M2854 2735 c-19 -15 -19 -15 1 -8 18 6 19 5 5 -13 -11 -15 -11 -16 0
-7 11 11 24 43 16 43 -1 0 -11 -7 -22 -15z"/>
<path d="M3716 2717 c3 -10 9 -15 12 -12 3 3 0 11 -7 18 -10 9 -11 8 -5 -6z"/>
<path d="M3684 2702 c0 -10 6 -19 13 -19 8 0 9 6 2 19 -5 10 -11 18 -12 18 -2
0 -3 -8 -3 -18z"/>
<path d="M2815 2701 c-3 -5 -2 -12 3 -15 5 -3 9 1 9 9 0 17 -3 19 -12 6z"/>
<path d="M2775 2670 c-3 -5 -2 -17 3 -26 8 -15 10 -15 15 0 5 12 3 15 -5 10
-8 -5 -9 -2 -5 9 7 19 2 23 -8 7z"/>
<path d="M2739 2653 c-13 -16 -12 -17 4 -4 16 13 21 21 13 21 -2 0 -10 -8 -17
-17z"/>
<path d="M2776 2612 c-3 -5 1 -9 9 -9 8 0 12 4 9 9 -3 4 -7 8 -9 8 -2 0 -6 -4
-9 -8z"/>
<path d="M3881 2574 c0 -11 3 -14 6 -6 3 7 2 16 -1 19 -3 4 -6 -2 -5 -13z"/>
<path d="M2607 2377 c-3 -8 1 -14 8 -14 7 0 11 6 8 14 -3 7 -6 13 -8 13 -2 0
-5 -6 -8 -13z"/>
<path d="M3507 2384 c-19 -20 8 -23 179 -23 140 0 184 3 181 12 -4 13 -347 23
-360 11z"/>
<path d="M2379 1992 c9 -7 10 -11 2 -15 -7 -4 -8 -5 0 -3 15 2 13 20 -3 24
-10 3 -10 2 1 -6z"/>
<path d="M3295 1951 c-3 -5 -2 -12 3 -15 5 -3 9 1 9 9 0 17 -3 19 -12 6z"/>
<path d="M3325 1951 c-3 -5 -2 -12 3 -15 5 -3 9 1 9 9 0 17 -3 19 -12 6z"/>
<path d="M3389 1898 c11 -15 41 -15 41 -1 0 3 -6 3 -14 0 -7 -3 -20 0 -27 6
-11 10 -11 9 0 -5z"/>
<path d="M3158 1863 c7 -3 16 -2 19 1 4 3 -2 6 -13 5 -11 0 -14 -3 -6 -6z"/>
<path d="M2973 1825 c0 -8 4 -12 9 -9 5 3 6 10 3 15 -9 13 -12 11 -12 -6z"/>
<path d="M3279 1813 c-13 -17 -13 -17 6 -3 11 8 22 16 24 17 2 2 0 3 -6 3 -6
0 -17 -8 -24 -17z"/>
<path d="M610 1811 c0 -6 4 -13 10 -16 6 -3 7 1 4 9 -7 18 -14 21 -14 7z"/>
<path d="M2674 1698 c0 -16 2 -16 18 -1 10 9 18 17 18 17 0 1 -8 2 -18 2 -10
0 -18 -8 -18 -18z"/>
<path d="M3594 1712 c3 -5 0 -13 -6 -15 -9 -4 -10 -6 -1 -6 17 -1 25 16 12 25
-7 4 -9 3 -5 -4z"/>
<path d="M3535 1670 c-3 -6 1 -7 9 -4 18 7 21 14 7 14 -6 0 -13 -4 -16 -10z"/>
<path d="M2783 1615 c0 -7 8 -10 19 -7 10 2 18 6 18 7 0 1 -8 5 -18 7 -11 3
-19 0 -19 -7z"/>
<path d="M5155 1389 c-4 -6 -5 -12 -2 -15 2 -3 7 2 10 11 7 17 1 20 -8 4z"/>
<path d="M1105 1151 c-3 -5 -2 -12 3 -15 5 -3 9 1 9 9 0 17 -3 19 -12 6z"/>
<path d="M4810 1076 c0 -2 8 -10 18 -17 15 -13 16 -12 3 4 -13 16 -21 21 -21
13z"/>
<path d="M1470 910 c-9 -6 -10 -10 -3 -10 6 0 15 5 18 10 8 12 4 12 -15 0z"/>
<path d="M1505 911 c-3 -5 -2 -12 3 -15 5 -3 9 1 9 9 0 17 -3 19 -12 6z"/>
<path d="M1642 821 c-11 -7 -10 -9 3 -14 9 -4 14 -3 10 2 -3 5 1 12 7 14 7 3
9 6 3 6 -5 0 -16 -3 -23 -8z"/>
<path d="M3498 573 c7 -3 16 -2 19 1 4 3 -2 6 -13 5 -11 0 -14 -3 -6 -6z"/>
<path d="M2538 563 c7 -3 16 -2 19 1 4 3 -2 6 -13 5 -11 0 -14 -3 -6 -6z"/>
<path d="M3757 3699 c7 -7 15 -10 18 -7 3 3 -2 9 -12 12 -14 6 -15 5 -6 -5z"/>
<path d="M1870 3620 c8 -5 20 -10 25 -10 6 0 3 5 -5 10 -8 5 -19 10 -25 10 -5
0 -3 -5 5 -10z"/>
<path d="M1700 3546 c7 -7 13 -7 20 0 6 6 3 10 -10 10 -13 0 -16 -4 -10 -10z"/>
<path d="M4725 3511 c-3 -5 -2 -12 3 -15 5 -3 9 1 9 9 0 17 -3 19 -12 6z"/>
<path d="M1447 3453 c-3 -5 6 -9 20 -10 19 -1 22 1 12 8 -17 11 -26 11 -32 2z"/>
<path d="M4670 3380 c-9 -6 -10 -10 -3 -10 6 0 15 5 18 10 8 12 4 12 -15 0z"/>
<path d="M4969 3358 c-8 -27 -5 -36 9 -30 10 4 12 7 4 10 -7 2 -10 8 -6 13 3
5 3 9 0 9 -3 0 -6 -1 -7 -2z"/>
<path d="M1000 3336 c7 -7 13 -7 20 0 6 6 3 10 -10 10 -13 0 -16 -4 -10 -10z"/>
<path d="M5003 3335 c0 -8 4 -12 9 -9 5 3 6 10 3 15 -9 13 -12 11 -12 -6z"/>
<path d="M4785 3300 c-3 -5 -1 -10 4 -10 6 0 11 5 11 10 0 6 -2 10 -4 10 -3 0
-8 -4 -11 -10z"/>
<path d="M5059 3293 c-13 -16 -12 -17 4 -4 9 7 17 15 17 17 0 8 -8 3 -21 -13z"/>
<path d="M5092 3261 c-11 -7 -11 -9 0 -14 9 -3 15 1 15 9 0 8 -1 14 -1 14 -1
0 -7 -4 -14 -9z"/>
<path d="M907 3249 c7 -7 15 -10 18 -7 3 3 -2 9 -12 12 -14 6 -15 5 -6 -5z"/>
<path d="M4881 3226 c-9 -10 -7 -17 6 -27 16 -12 17 -12 6 2 -10 12 -10 18 -1
27 7 7 9 12 6 12 -3 0 -11 -6 -17 -14z"/>
<path d="M5136 3213 c-6 -14 -5 -15 5 -6 7 7 10 15 7 18 -3 3 -9 -2 -12 -12z"/>
<path d="M1055 3190 c-3 -6 1 -7 9 -4 18 7 21 14 7 14 -6 0 -13 -4 -16 -10z"/>
<path d="M859 3173 c-13 -16 -12 -17 4 -4 9 7 17 15 17 17 0 8 -8 3 -21 -13z"/>
<path d="M4945 3181 c-3 -5 -2 -12 3 -15 5 -3 9 1 9 9 0 17 -3 19 -12 6z"/>
<path d="M5165 3181 c-3 -5 -2 -12 3 -15 5 -3 9 1 9 9 0 17 -3 19 -12 6z"/>
<path d="M807 3169 c7 -7 15 -10 18 -7 3 3 -2 9 -12 12 -14 6 -15 5 -6 -5z"/>
<path d="M760 3126 c0 -2 7 -7 16 -10 8 -3 12 -2 9 4 -6 10 -25 14 -25 6z"/>
<path d="M979 3125 c-1 -3 -2 -8 -3 -12 -1 -5 -5 -15 -10 -23 -7 -12 -6 -13 4
-3 13 12 23 43 14 43 -2 0 -5 -2 -5 -5z"/>
<path d="M750 3100 c8 -5 20 -10 25 -10 6 0 3 5 -5 10 -8 5 -19 10 -25 10 -5
0 -3 -5 5 -10z"/>
<path d="M896 3062 c-2 -4 4 -8 14 -8 10 0 16 4 14 8 -3 4 -9 8 -14 8 -5 0
-11 -4 -14 -8z"/>
<path d="M709 3048 c-5 -9 -5 -48 -1 -43 6 6 11 45 5 45 -2 0 -4 -1 -4 -2z"/>
<path d="M5286 3037 c3 -10 9 -15 12 -12 3 3 0 11 -7 18 -10 9 -11 8 -5 -6z"/>
<path d="M649 3013 c-13 -16 -12 -17 4 -4 9 7 17 15 17 17 0 8 -8 3 -21 -13z"/>
<path d="M5314 3012 c4 -3 14 -7 22 -8 9 -1 13 0 10 4 -4 3 -14 7 -22 8 -9 1
-13 0 -10 -4z"/>
<path d="M5185 2990 c-4 -6 -11 -7 -17 -4 -7 4 -8 2 -4 -5 6 -9 11 -9 22 0 14
11 18 19 10 19 -3 0 -8 -5 -11 -10z"/>
<path d="M5140 2976 c0 -2 8 -10 18 -17 15 -13 16 -12 3 4 -13 16 -21 21 -21
13z"/>
<path d="M806 2928 c3 -5 10 -6 15 -3 13 9 11 12 -6 12 -8 0 -12 -4 -9 -9z"/>
<path d="M5370 2930 c0 -5 5 -10 11 -10 5 0 7 5 4 10 -3 6 -8 10 -11 10 -2 0
-4 -4 -4 -10z"/>
<path d="M5220 2906 c7 -7 13 -7 20 0 6 6 3 10 -10 10 -13 0 -16 -4 -10 -10z"/>
<path d="M5614 2519 c-4 -7 -3 -9 4 -5 5 3 13 0 15 -6 4 -9 6 -10 6 -1 1 17
-16 25 -25 12z"/>
<path d="M5401 1624 c0 -11 3 -14 6 -6 3 7 2 16 -1 19 -3 4 -6 -2 -5 -13z"/>
<path d="M512 1460 c0 -14 2 -19 5 -12 2 6 2 18 0 25 -3 6 -5 1 -5 -13z"/>
<path d="M545 1469 c-4 -6 -5 -12 -2 -15 2 -3 7 2 10 11 7 17 1 20 -8 4z"/>
<path d="M586 1312 c-3 -5 1 -9 9 -9 8 0 12 4 9 9 -3 4 -7 8 -9 8 -2 0 -6 -4
-9 -8z"/>
<path d="M700 1220 c-6 -11 -8 -20 -6 -20 3 0 10 9 16 20 6 11 8 20 6 20 -3 0
-10 -9 -16 -20z"/>
<path d="M5310 1225 c-7 -9 -11 -17 -9 -20 3 -2 10 5 17 15 14 24 10 26 -8 5z"/>
<path d="M883 1177 c0 -8 6 -14 14 -14 9 0 10 4 2 14 -6 7 -12 13 -14 13 -1 0
-2 -6 -2 -13z"/>
<path d="M770 1135 c13 -14 25 -25 27 -25 9 0 -33 49 -41 50 -5 0 1 -11 14
-25z"/>
<path d="M985 1101 c-3 -5 -2 -12 3 -15 5 -3 9 1 9 9 0 17 -3 19 -12 6z"/>
<path d="M1015 1101 c-3 -5 -2 -12 3 -15 5 -3 9 1 9 9 0 17 -3 19 -12 6z"/>
<path d="M4950 1076 c-9 -11 -9 -19 0 -33 11 -17 11 -17 6 1 -4 10 -1 25 5 32
6 8 9 14 6 14 -2 0 -10 -7 -17 -14z"/>
<path d="M839 1063 c-13 -16 -12 -17 4 -4 9 7 17 15 17 17 0 8 -8 3 -21 -13z"/>
<path d="M4892 1022 c-8 -6 -2 -9 18 -9 20 0 26 3 18 9 -7 4 -15 8 -18 8 -3 0
-11 -4 -18 -8z"/>
<path d="M5099 983 c-13 -16 -12 -17 4 -4 9 7 17 15 17 17 0 8 -8 3 -21 -13z"/>
<path d="M5053 969 c-2 -23 3 -25 10 -4 4 8 3 16 -1 19 -4 3 -9 -4 -9 -15z"/>
<path d="M976 912 c-3 -5 1 -9 9 -9 8 0 12 4 9 9 -3 4 -7 8 -9 8 -2 0 -6 -4
-9 -8z"/>
<path d="M4485 791 c-3 -5 0 -13 6 -17 8 -4 9 -3 5 4 -4 7 -3 12 3 12 5 0 13
-4 16 -10 3 -5 11 -10 18 -10 6 0 2 7 -9 15 -23 17 -31 18 -39 6z"/>
<path d="M4815 790 c-3 -6 1 -7 9 -4 18 7 21 14 7 14 -6 0 -13 -4 -16 -10z"/>
<path d="M4382 711 c-11 -7 -11 -9 0 -14 9 -3 15 1 15 9 0 8 -1 14 -1 14 -1 0
-7 -4 -14 -9z"/>
<path d="M3835 551 c-3 -5 0 -13 6 -17 7 -4 9 -3 5 4 -3 5 0 13 6 15 9 4 10 6
1 6 -6 1 -14 -3 -18 -8z"/>
<path d="M1822 511 c-11 -7 -11 -9 0 -14 9 -3 15 1 15 9 0 8 -1 14 -1 14 -1 0
-7 -4 -14 -9z"/>
<path d="M2568 463 c7 -3 16 -2 19 1 4 3 -2 6 -13 5 -11 0 -14 -3 -6 -6z"/>
<path d="M3418 463 c7 -3 16 -2 19 1 4 3 -2 6 -13 5 -11 0 -14 -3 -6 -6z"/>
<path d="M2058 423 c7 -3 16 -2 19 1 4 3 -2 6 -13 5 -11 0 -14 -3 -6 -6z"/>
<path d="M2108 403 c7 -3 16 -2 19 1 4 3 -2 6 -13 5 -11 0 -14 -3 -6 -6z"/>
<path d="M2555 351 c-6 -11 13 -26 22 -17 4 3 1 6 -6 6 -7 0 -9 5 -6 10 3 6 4
10 1 10 -3 0 -7 -4 -11 -9z"/>
<path d="M5089 3468 c-5 -18 -6 -38 -1 -34 7 8 12 36 6 36 -2 0 -4 -1 -5 -2z"/>
<path d="M890 786 c0 -2 7 -7 16 -10 8 -3 12 -2 9 4 -6 10 -25 14 -25 6z"/>
</g>
</svg>
